<svg xmlns="http://www.w3.org/2000/svg" style="display: none;">
<symbol id="spring" viewBox="0 0 24 24">
    <path d="M21.822 1.248c-.338.806-.766 1.57-1.281 2.272A12.045 12.045 0 0012.03 0C5.431 0 0 5.43 0 12.031c0 3.293 1.35 6.445 3.737 8.717l.444.393a12.041 12.041 0 007.75 2.83c6.275 0 11.55-4.911 11.997-11.172.328-3.065-.572-6.941-2.106-11.55zM5.447 20.817c-.194.24-.49.38-.8.38a1.033 1.033 0 01-1.028-1.03c0-.564.465-1.03 1.028-1.03a1.032 1.032 0 01.8 1.68zm16.325-3.602c-2.969 3.954-9.31 2.622-13.375 2.812 0 0-.722.044-1.447.162 0 0 .272-.115.625-.25 2.853-.992 4.203-1.185 5.937-2.075 3.266-1.66 6.494-5.293 7.166-9.072-1.244 3.636-5.012 6.76-8.447 8.03-2.353.867-6.603 1.71-6.603 1.71l-.172-.09c-2.894-1.408-2.981-7.672 2.278-9.694 2.303-.886 4.507-.4 6.994-.992 2.656-.63 5.728-2.622 6.978-5.219 1.4 4.154 3.085 10.658.066 14.678z"></path>
</symbol>
<symbol id="java" viewBox="0 0 16 16">
    <path fill-rule="nonzero" clip-rule="nonzero" d="M4.45262 0.77086C4.71879 0.451461 5.19348 0.408307 5.51288 0.674473C6.27367 1.30846 6.56914 2.05693 6.4059 2.79543C6.26691 3.42419 5.82892 3.87253 5.4875 4.11099C5.27416 4.29388 5.18522 4.43743 5.14847 4.52681C5.11339 4.61211 5.11415 4.67467 5.12613 4.72887C5.15746 4.87054 5.29291 5.0395 5.44856 5.14327C5.7945 5.37389 5.88798 5.84129 5.65735 6.18722C5.42673 6.53316 4.95933 6.62664 4.61339 6.39602C4.26717 6.1652 3.80036 5.70682 3.65602 5.05387C3.49275 4.31537 3.78822 3.56689 4.54901 2.9329L4.5799 2.90715L4.61336 2.88485C4.76901 2.78108 4.90445 2.61213 4.93577 2.47046C4.94775 2.41627 4.94851 2.3537 4.91343 2.2684C4.87525 2.17555 4.78076 2.02424 4.54901 1.83112C4.22961 1.56495 4.18646 1.09026 4.45262 0.77086ZM9.1224 2.77835C9.38857 3.09775 9.34542 3.57244 9.02602 3.83861C8.79427 4.03173 8.69978 4.18303 8.66159 4.27588C8.62651 4.36119 8.62728 4.42375 8.63926 4.47794C8.67057 4.61962 8.80602 4.78857 8.96166 4.89233C9.3076 5.12296 9.40108 5.59035 9.17045 5.93629C8.93983 6.28223 8.47243 6.3757 8.1265 6.14508C7.78027 5.91426 7.31347 5.45587 7.16913 4.80292C7.00588 4.06442 7.30136 3.31595 8.06214 2.68196C8.38154 2.41579 8.85624 2.45895 9.1224 2.77835ZM0.207849 7.59455C0.29163 7.25942 0.59274 7.02432 0.938179 7.02432H12.4962C12.8417 7.02432 13.1428 7.25942 13.2266 7.59455C13.3354 8.03003 13.3631 8.58563 13.3041 9.20747H15.1472C15.563 9.20747 15.9 9.54451 15.9 9.96027C15.9 10.6991 15.8551 11.8958 15.103 12.8984C14.3624 13.8856 13.0731 14.5203 11.0103 14.5882C10.7408 14.9262 10.444 15.2603 10.1177 15.5866C9.97652 15.7278 9.78504 15.8071 9.58538 15.8071H3.84904C3.64938 15.8071 3.4579 15.7278 3.31672 15.5866C1.86788 14.1377 0.999928 12.5367 0.537609 11.1148C0.0832301 9.7174 0.000142552 8.42537 0.207849 7.59455ZM9.26725 14.3015C9.54933 14.0025 9.80359 13.6979 10.0322 13.3914C10.965 12.1406 11.4703 10.8584 11.691 9.80577C11.7965 9.30267 11.8334 8.87025 11.8284 8.52994H1.60604C1.59838 9.05604 1.69095 9.79279 1.96944 10.6493C2.34144 11.7933 3.02818 13.0942 4.16717 14.3015H9.26725ZM12.0935 12.9643C13.0969 12.7691 13.6142 12.3739 13.8986 11.9949C14.1788 11.6214 14.3043 11.176 14.3577 10.7131H13.0182C12.8197 11.4239 12.5193 12.189 12.0935 12.9643Z" fill="#000000"/>
</symbol>
<symbol id="python" viewBox="0 0 16 16">
    <path d="M5.79 1.574h3.866c.14 0 .252.11.252.246v5.186a.25.25 0 01-.252.246H6.344c-.975 0-1.766.77-1.766 1.72v1.162a.25.25 0 01-.253.243H1.867a.25.25 0 01-.253-.246V6.177a.25.25 0 01.252-.246H7.98c.418 0 .757-.33.757-.737a.747.747 0 00-.757-.738H5.537V1.82a.25.25 0 01.253-.246zm5.632 2.592V1.82c0-.95-.79-1.72-1.766-1.72H5.79c-.976 0-1.767.77-1.767 1.72v2.636H1.867C.89 4.456.1 5.226.1 6.176v3.955c0 .95.79 1.72 1.766 1.72h2.46c.085 0 .17-.006.252-.017v2.346c0 .95.79 1.72 1.766 1.72h3.866c.976 0 1.767-.77 1.767-1.72v-2.636h2.156c.976 0 1.767-.77 1.767-1.72V5.868c0-.95-.79-1.72-1.767-1.72h-2.458c-.086 0-.17.005-.253.017zm-5.33 5.974V8.994a.25.25 0 01.252-.246h3.312c.976 0 1.766-.77 1.766-1.72V5.866a.25.25 0 01.253-.243h2.458c.14 0 .253.11.253.246v3.954a.25.25 0 01-.252.246H8.02a.747.747 0 00-.757.737c0 .408.339.738.757.738h2.442v2.636a.25.25 0 01-.253.246H6.344a.25.25 0 01-.252-.246v-4.04z" fill="#000000"/>    </symbol>
<symbol id="sql" viewBox="0 0 24 24">
    <path d="M21 5C21 6.65685 16.9706 8 12 8C7.02944 8 3 6.65685 3 5M21 5C21 3.34315 16.9706 2 12 2C7.02944 2 3 3.34315 3 5M21 5V19C21 20.66 17 22 12 22C7 22 3 20.66 3 19V5M21 9.72021C21 11.3802 17 12.7202 12 12.7202C7 12.7202 3 11.3802 3 9.72021M21 14.44C21 16.1 17 17.44 12 17.44C7 17.44 3 16.1 3 14.44" stroke="#000000" stroke-width="1" stroke-linecap="round" stroke-linejoin="round"/>
</symbol>
<symbol id="git" viewBox="0 0 24 24">
    <path fill-rule="evenodd" clip-rule="evenodd" d="M13.4142 3.82843C12.6332 3.04738 11.3668 3.04738 10.5858 3.82843L9.91421 4.5L11.482 6.06774C11.6472 6.02356 11.8208 6 12 6C13.1046 6 14 6.89543 14 8C14 8.17916 13.9764 8.35282 13.9323 8.51804L15.982 10.5677C16.1472 10.5236 16.3208 10.5 16.5 10.5C17.6046 10.5 18.5 11.3954 18.5 12.5C18.5 13.6046 17.6046 14.5 16.5 14.5C15.3954 14.5 14.5 13.6046 14.5 12.5C14.5 12.3208 14.5236 12.1472 14.5677 11.982L13 10.4142V15.2676C13.5978 15.6134 14 16.2597 14 17C14 18.1046 13.1046 19 12 19C10.8954 19 10 18.1046 10 17C10 16.2597 10.4022 15.6134 11 15.2676V9.73244C10.4022 9.38663 10 8.74028 10 8C10 7.82084 10.0236 7.64718 10.0677 7.48196L8.5 5.91421L3.82843 10.5858C3.04738 11.3668 3.04738 12.6332 3.82843 13.4142L10.5858 20.1716C11.3668 20.9526 12.6332 20.9526 13.4142 20.1716L20.1716 13.4142C20.9526 12.6332 20.9526 11.3668 20.1716 10.5858L13.4142 3.82843ZM9.17157 2.41421C10.7337 0.852115 13.2663 0.852119 14.8284 2.41422L21.5858 9.17157C23.1479 10.7337 23.1479 13.2663 21.5858 14.8284L14.8284 21.5858C13.2663 23.1479 10.7337 23.1479 9.17157 21.5858L2.41421 14.8284C0.852115 13.2663 0.852119 10.7337 2.41422 9.17157L9.17157 2.41421Z" fill="#000000"/>
</symbol>
<symbol id="aws" viewBox="0 0 122.88 96.35">
    <path d="M86.38,31.27l-1.06.55-1.11.62-.06,0C83.1,33.09,82,33.78,81,34.54s-2.18,1.62-3.28,2.51a1,1,0,0,1-1.33-.13l-4.75-5.43a1,1,0,0,1,.07-1.32c.83-.78,1.71-1.52,2.62-2.24s1.86-1.38,2.82-2c.76-.49,1.55-1,2.38-1.43s1.64-.87,2.45-1.25c.34-.14.67-.33,1-.48a28.59,28.59,0,0,0-4.77-5.89A28.21,28.21,0,0,0,71.14,12a29.33,29.33,0,0,0-7.72-2.46,31,31,0,0,0-8.21-.31,29.3,29.3,0,0,0-7.94,1.89,27.78,27.78,0,0,0-7,3.92l0,0a26.44,26.44,0,0,0-6.53,7.44,30.26,30.26,0,0,0-3.63,9.81l-.47,2.47a1,1,0,0,1-.77.76L26.41,36c-1.19.21-2.3.46-3.35.74a29.65,29.65,0,0,0-2.93.95l-.05,0a22.82,22.82,0,0,0-2.44,1.12,18.76,18.76,0,0,0-2.19,1.37,15.2,15.2,0,0,0-2.79,2.59A14.72,14.72,0,0,0,10,47.54a16.59,16.59,0,0,0-.89,5.6,18.85,18.85,0,0,0,3.55,10.8l0,.05a17.5,17.5,0,0,0,1.36,1.65,16.37,16.37,0,0,0,1.54,1.47,16.81,16.81,0,0,0,1.81,1.28,14,14,0,0,0,2,1c.39.16.78.31,1.19.44a10.46,10.46,0,0,0,.48,2.22c.07.21.14.41.22.61A12.59,12.59,0,0,0,20.57,74a11,11,0,0,0-1.2,4.27l0,.75A27,27,0,0,1,16,77.84a25.3,25.3,0,0,1-3.29-1.66,21.92,21.92,0,0,1-2.92-2.07l0,0a26,26,0,0,1-2.34-2.22,27.22,27.22,0,0,1-2.1-2.56,27.78,27.78,0,0,1-3.89-7.63A28.21,28.21,0,0,1,0,53.17a25.88,25.88,0,0,1,1.42-8.72A23.92,23.92,0,0,1,5.65,37a25.41,25.41,0,0,1,2.08-2.2,26.63,26.63,0,0,1,2.37-1.94,25.38,25.38,0,0,1,3.17-2,30.9,30.9,0,0,1,3.58-1.64c.86-.34,1.76-.65,2.69-.93.75-.23,1.52-.44,2.29-.63a38.26,38.26,0,0,1,4.74-10.85,35.42,35.42,0,0,1,8.18-8.94,36.58,36.58,0,0,1,9.18-5.19A39,39,0,0,1,54.36.18,40.09,40.09,0,0,1,65,.59,38.68,38.68,0,0,1,75.09,3.82a37.26,37.26,0,0,1,10,7,37.72,37.72,0,0,1,6.92,9.37c.6-.08,1.18-.14,1.76-.18.79-.06,1.6-.09,2.43-.08a26.08,26.08,0,0,1,10.28,2.11l.06,0a25.07,25.07,0,0,1,8.36,6A22.64,22.64,0,0,1,116.53,30c.52.66,1,1.36,1.5,2.09l0,.06a29.45,29.45,0,0,1,3.61,8.35,37.09,37.09,0,0,1,1.21,9.76,34.54,34.54,0,0,1-1.44,9.61,25.62,25.62,0,0,1-3.92,7.9,26.26,26.26,0,0,1-3.93,4.17A30.11,30.11,0,0,1,109,75.15a9,9,0,0,0-.17-1.38v0a10.31,10.31,0,0,0-1.5-3.65l0,0h0L106,68a9,9,0,0,0-.88-1.13v0a21.71,21.71,0,0,0,2.51-1.8A15.71,15.71,0,0,0,112.76,57a24.88,24.88,0,0,0,1-6.8,27.53,27.53,0,0,0-.85-7.18,20.29,20.29,0,0,0-2.53-5.94c-.33-.51-.67-1-1-1.43s-.71-.88-1.09-1.28a16.15,16.15,0,0,0-5.42-3.88,17,17,0,0,0-6.64-1.36,21.77,21.77,0,0,0-4.85.53,26.84,26.84,0,0,0-5,1.64Zm4,36.26a1.17,1.17,0,0,0-1,.17,1.23,1.23,0,0,0-.55.81l-.39,1.88a11.75,11.75,0,0,0-1.32.11c-.44.07-.87.16-1.3.27L84.77,69a1.23,1.23,0,0,0-.8-.55,1.2,1.2,0,0,0-1,.19l-2.2,1.43a1.22,1.22,0,0,0-.53.79,1.21,1.21,0,0,0,.17,1l1.05,1.6A10.16,10.16,0,0,0,80,75.57l-2.08-.42a1.16,1.16,0,0,0-.94.16,1.26,1.26,0,0,0-.54.8l-.53,2.55a1.28,1.28,0,0,0,.17,1,1.21,1.21,0,0,0,.81.54l1.89.4a9.63,9.63,0,0,0,.1,1.31,11.11,11.11,0,0,0,.28,1.3l-1.75,1.15a1.18,1.18,0,0,0-.55.79,1.23,1.23,0,0,0,.18,1l1.44,2.2a1.22,1.22,0,0,0,.79.54,1.19,1.19,0,0,0,1-.18l1.61-1.05a8.29,8.29,0,0,0,1,.86,13,13,0,0,0,1.11.71l-.43,2a1.16,1.16,0,0,0,.16.94,1.26,1.26,0,0,0,.81.55l2.56.55A1.25,1.25,0,0,0,88,93a1.27,1.27,0,0,0,.56-.78l.38-1.91a8.4,8.4,0,0,0,1.32-.11A10.93,10.93,0,0,0,91.52,90l1.15,1.75a1.2,1.2,0,0,0,.8.55,1.23,1.23,0,0,0,1-.18l2.19-1.44a1.23,1.23,0,0,0,.54-.79,1.21,1.21,0,0,0-.17-1l-1-1.6a10,10,0,0,0,.85-1,11.77,11.77,0,0,0,.71-1.12l2.06.44a1.17,1.17,0,0,0,.94-.17,1.15,1.15,0,0,0,.54-.8l.55-2.56a1.31,1.31,0,0,0-.19-1,1.27,1.27,0,0,0-.79-.55l-1.91-.39a8.37,8.37,0,0,0-.11-1.31,9.68,9.68,0,0,0-.27-1.3l1.75-1.14a1.22,1.22,0,0,0,.55-.8,1.23,1.23,0,0,0-.18-1L99,72.47a1.25,1.25,0,0,0-1.74-.36l-1.61,1a9.18,9.18,0,0,0-1-.84,9.7,9.7,0,0,0-1.11-.7l.42-2.08a1.16,1.16,0,0,0-.16-.94,1.21,1.21,0,0,0-.81-.54l-2.55-.53ZM88.48,76a4.57,4.57,0,0,1,1.73.24,4.63,4.63,0,0,1,1.44.86,4.34,4.34,0,0,1,1,1.34,4.28,4.28,0,0,1,.44,1.69,4.33,4.33,0,0,1-.25,1.72A4.47,4.47,0,0,1,92,83.3a4.43,4.43,0,0,1-1.35,1,4.39,4.39,0,0,1-3.41.19,4.28,4.28,0,0,1-2.45-2.2,4.41,4.41,0,0,1,.66-4.85,4.42,4.42,0,0,1,1.35-1A4.35,4.35,0,0,1,88.48,76ZM57.18,56.38a2,2,0,0,0-2.74.9L53,60.05A14.52,14.52,0,0,0,51,59.67a19.19,19.19,0,0,0-2.14-.12l-1.05-3.2a2,2,0,0,0-2.56-1.3l-4,1.32a2,2,0,0,0-1.17,1,1.91,1.91,0,0,0-.12,1.55l1,2.94a16.08,16.08,0,0,0-3.28,2.66L34.51,63A1.83,1.83,0,0,0,33,62.87a2,2,0,0,0-1.18,1l-1.89,3.74a2,2,0,0,0,.9,2.74l2.77,1.41a14.27,14.27,0,0,0-.38,2.09c-.08.71-.11,1.42-.12,2.13l-3.2,1a2,2,0,0,0-1.29,2.57l1.32,4a1.94,1.94,0,0,0,1,1.16,2,2,0,0,0,1.56.13l2.93-1a15,15,0,0,0,1.24,1.76,17.74,17.74,0,0,0,1.44,1.56l-1.54,3a1.88,1.88,0,0,0-.14,1.52,2,2,0,0,0,1,1.19L41.19,95a2,2,0,0,0,1.55.09,2,2,0,0,0,1.19-1l1.39-2.81a14.52,14.52,0,0,0,2.09.38,19.14,19.14,0,0,0,2.13.12l1.06,3.2a2,2,0,0,0,2.56,1.3l4-1.32a2,2,0,0,0,1.17-1,1.93,1.93,0,0,0,.12-1.56l-1-2.94a13.77,13.77,0,0,0,1.75-1.24,19.44,19.44,0,0,0,1.57-1.43l3,1.53a1.85,1.85,0,0,0,1.54.14,1.87,1.87,0,0,0,1.17-1l1.93-3.75a2.08,2.08,0,0,0,.09-1.55,2.06,2.06,0,0,0-1-1.19l-2.81-1.4a14.27,14.27,0,0,0,.38-2.09,19,19,0,0,0,.11-2.13l3.21-1a2,2,0,0,0,1.29-2.57l-1.32-4a2,2,0,0,0-2.56-1.29l-2.93,1a15.79,15.79,0,0,0-1.24-1.74A15.06,15.06,0,0,0,60.3,64L61.82,61A1.9,1.9,0,0,0,62,59.45a2,2,0,0,0-1-1.18l-3.75-1.89ZM48.71,67.17a8.36,8.36,0,0,1,3.34.47,8.73,8.73,0,0,1,2.8,1.66,8.61,8.61,0,0,1,2,2.61,8.42,8.42,0,0,1,.85,3.27,8.55,8.55,0,0,1-.48,3.34,8.41,8.41,0,0,1-4.26,4.76,8.68,8.68,0,0,1-6.61.37,8.53,8.53,0,0,1-5.13-10.88A8.66,8.66,0,0,1,42.84,70a8.78,8.78,0,0,1,2.6-2,8.33,8.33,0,0,1,3.27-.84Z"/>
</symbol>
<symbol id="go" viewBox ="0 0 24 24">
    <path d="M1.811 10.231c-.047 0-.058-.023-.035-.059l.246-.315c.023-.035.081-.058.128-.058h4.172c.046 0 .058.035.035.07l-.199.303c-.023.036-.082.07-.117.07zM.047 11.306c-.047 0-.059-.023-.035-.058l.245-.316c.023-.035.082-.058.129-.058h5.328c.047 0 .07.035.058.07l-.093.28c-.012.047-.058.07-.105.07zm2.828 1.075c-.047 0-.059-.035-.035-.07l.163-.292c.023-.035.07-.07.117-.07h2.337c.047 0 .07.035.07.082l-.023.28c0 .047-.047.082-.082.082zm12.129-2.36c-.736.187-1.239.327-1.963.514-.176.046-.187.058-.34-.117-.174-.199-.303-.327-.548-.444-.737-.362-1.45-.257-2.115.175-.795.514-1.204 1.274-1.192 2.22.011.935.654 1.706 1.577 1.835.795.105 1.46-.175 1.987-.77.105-.13.198-.27.315-.434H10.47c-.245 0-.304-.152-.222-.35.152-.362.432-.97.596-1.274a.315.315 0 0 1 .292-.187h4.253c-.023.316-.023.631-.07.947a4.983 4.983 0 0 1-.958 2.29c-.841 1.11-1.94 1.8-3.33 1.986-1.145.152-2.209-.07-3.143-.77-.865-.655-1.356-1.52-1.484-2.595-.152-1.274.222-2.419.993-3.424.83-1.086 1.928-1.776 3.272-2.02 1.098-.2 2.15-.07 3.096.571.62.41 1.063.97 1.356 1.648.07.105.023.164-.117.2m3.868 6.461c-1.064-.024-2.034-.328-2.852-1.029a3.665 3.665 0 0 1-1.262-2.255c-.21-1.32.152-2.489.947-3.529.853-1.122 1.881-1.706 3.272-1.95 1.192-.21 2.314-.095 3.33.595.923.63 1.496 1.484 1.648 2.605.198 1.578-.257 2.863-1.344 3.962-.771.783-1.718 1.273-2.805 1.495-.315.06-.63.07-.934.106zm2.78-4.72c-.011-.153-.011-.27-.034-.387-.21-1.157-1.274-1.81-2.384-1.554-1.087.245-1.788.935-2.045 2.033-.21.912.234 1.835 1.075 2.21.643.28 1.285.244 1.905-.07.923-.48 1.425-1.228 1.484-2.233z"></path>
</symbol>
</svg>